<svg width="425" height="77" viewBox="0 0 425 77" fill="none" xmlns="http://www.w3.org/2000/svg">
<g clip-path="url(#clip0_253_2)">
<path d="M398.815 37.2001C398.815 27.3139 390.084 25.4196 385.718 25.7082H359.836V17.1285H385.718C392.959 17.2335 407.442 21.3947 407.442 37.2001C407.442 53.0055 395.102 59.738 388.932 61.1285H367.522V33.3432H377.717V52.4703H388.932C392.227 51.4995 398.815 47.0863 398.815 37.2001Z" fill="#2C2D66"/>
<path d="M27.6525 0H0V25.1429H27.6525V0Z" fill="#2C2D66"/>
<path d="M162.458 46.8286H134.806V77H162.458V46.8286Z" fill="#2C2D66"/>
<path d="M120.263 26.5833H92.6106V76.869H120.263V26.5833Z" fill="#2C2D66"/>
<path d="M309.677 26.5571H282.024V76.8428H309.677V26.5571Z" fill="#2C2D66"/>
<path d="M225.462 26.5571H197.81V76.8428H225.462V26.5571Z" fill="#2C2D66"/>
<path d="M42.4083 0H104.626C113.304 0 120.338 7.03552 120.338 15.7143V17.6H42.4083V0Z" fill="#2C2D66"/>
<path d="M134.806 0H209.75C218.428 0 225.462 7.03552 225.462 15.7143V17.6H134.806V0Z" fill="#2C2D66"/>
<path d="M236.774 0H327.431V17.6H236.774V0Z" fill="#2C2D66"/>
<path d="M397.033 0H425V10.6857H397.033V0Z" fill="#2C2D66"/>
<path d="M414.316 29.8571V4.67087e-07L425 0V29.8571H414.316Z" fill="#2C2D66"/>
<path d="M351.469 0H391.377V8.8H351.469V0Z" fill="#2C2D66"/>
<path d="M416.201 77V35.0428H425V77H416.201Z" fill="#2C2D66"/>
<path d="M351.469 77V17.1285H360.268V77H351.469Z" fill="#2C2D66"/>
<path d="M425 77H351.469V68.2H425V77Z" fill="#2C2D66"/>
</g>
<defs>
<clipPath id="clip0_253_2">
<rect width="425" height="77" fill="white"/>
</clipPath>
</defs>
</svg>
