<svg width="24" height="22" viewBox="0 0 24 22" fill="none" xmlns="http://www.w3.org/2000/svg">
<path d="M23.6456 9.55177L12.4379 0.159178C12.1838 -0.0530594 11.816 -0.0530594 11.5629 0.159178L0.354175 9.55283C0.129166 9.74114 0 10.0179 0 10.3113C0 10.6047 0.129173 10.8814 0.354175 11.0708C0.723977 11.3808 1.26045 11.3798 1.62922 11.0708L11.7296 2.60528C11.8849 2.47524 12.1109 2.47628 12.2661 2.60528L22.3697 11.0708C22.5541 11.2258 22.7812 11.3038 23.0073 11.3038C23.2344 11.3038 23.4604 11.2268 23.6458 11.0708C23.8708 10.8825 24 10.6047 24 10.3113C24 10.0168 23.8706 9.74009 23.6456 9.55177Z" fill="black"/>
<path d="M12.4366 4.11804C12.1834 3.9058 11.8157 3.9058 11.5615 4.11804L3.07585 11.2321C2.92168 11.3611 2.83313 11.5515 2.83313 11.7523V21.3196C2.83313 21.6941 3.13834 21.999 3.51337 21.999H9.03761C9.41261 21.999 9.71785 21.6942 9.71785 21.3196L9.71889 14.6831C9.71889 14.4531 9.9064 14.2669 10.1356 14.2669H13.8637C14.0939 14.2669 14.2804 14.4542 14.2804 14.6831V21.3207C14.2804 21.6952 14.5856 22 14.9607 22H20.4849C20.8599 22 21.1651 21.6952 21.1651 21.3207L21.1662 11.7534C21.1662 11.5526 21.0776 11.3622 20.9235 11.2332L12.4366 4.11804Z" fill="black"/>
</svg>
