<svg width="19" height="24" viewBox="0 0 19 24" fill="none" xmlns="http://www.w3.org/2000/svg">
<path fill-rule="evenodd" clip-rule="evenodd" d="M0 9.30154C0 4.16443 4.25328 0 9.5 0C14.7467 0 19 4.16443 19 9.30154C19 14.3187 13.5886 20.4764 9.92453 23.8357C9.68522 24.0547 9.31363 24.0547 9.07433 23.8357C5.41028 20.4764 0 14.3199 0 9.30154ZM9.5 4.32448C6.69325 4.32448 4.41675 6.55334 4.41675 9.30154C4.41675 12.0508 6.69316 14.2786 9.5 14.2786C12.3068 14.2786 14.5832 12.0497 14.5832 9.30154C14.5832 6.55334 12.3068 4.32448 9.5 4.32448Z" fill="black"/>
</svg>
